G04 #@! TF.GenerationSoftware,KiCad,Pcbnew,(5.1.6-0-10_14)*
G04 #@! TF.CreationDate,2021-10-01T11:36:57+02:00*
G04 #@! TF.ProjectId,BioZ_front_end_V2_1,42696f5a-5f66-4726-9f6e-745f656e645f,rev?*
G04 #@! TF.SameCoordinates,Original*
G04 #@! TF.FileFunction,Soldermask,Bot*
G04 #@! TF.FilePolarity,Negative*
%FSLAX46Y46*%
G04 Gerber Fmt 4.6, Leading zero omitted, Abs format (unit mm)*
G04 Created by KiCad (PCBNEW (5.1.6-0-10_14)) date 2021-10-01 11:36:57*
%MOMM*%
%LPD*%
G01*
G04 APERTURE LIST*
%ADD10O,1.720000X1.720000*%
%ADD11R,1.720000X1.720000*%
%ADD12C,2.270000*%
%ADD13C,2.070000*%
%ADD14C,1.290000*%
%ADD15O,1.020000X2.120000*%
%ADD16O,1.020000X1.620000*%
%ADD17C,0.670000*%
%ADD18C,1.620000*%
%ADD19R,1.620000X1.620000*%
%ADD20O,1.760000X2.210000*%
%ADD21R,4.020000X2.020000*%
%ADD22O,3.320000X2.020000*%
%ADD23O,2.020000X3.520000*%
%ADD24C,1.391600*%
G04 APERTURE END LIST*
D10*
G04 #@! TO.C,J4*
X59400000Y-71440000D03*
X56860000Y-71440000D03*
X59400000Y-68900000D03*
D11*
X56860000Y-68900000D03*
G04 #@! TD*
D10*
G04 #@! TO.C,J13*
X71870000Y-145750000D03*
X69330000Y-145750000D03*
X66790000Y-145750000D03*
D11*
X64250000Y-145750000D03*
G04 #@! TD*
D10*
G04 #@! TO.C,J11*
X63420000Y-39710000D03*
X63420000Y-42250000D03*
X65960000Y-39710000D03*
X65960000Y-42250000D03*
X68500000Y-39710000D03*
D11*
X68500000Y-42250000D03*
G04 #@! TD*
D12*
G04 #@! TO.C,J8*
X74460000Y-136790000D03*
X74460000Y-131710000D03*
X79540000Y-131710000D03*
X79540000Y-136790000D03*
D13*
X77000000Y-134250000D03*
G04 #@! TD*
D12*
G04 #@! TO.C,J7*
X56460000Y-136540000D03*
X56460000Y-131460000D03*
X61540000Y-131460000D03*
X61540000Y-136540000D03*
D13*
X59000000Y-134000000D03*
G04 #@! TD*
D12*
G04 #@! TO.C,J9*
X23210000Y-136540000D03*
X23210000Y-131460000D03*
X28290000Y-131460000D03*
X28290000Y-136540000D03*
D13*
X25750000Y-134000000D03*
G04 #@! TD*
D10*
G04 #@! TO.C,J14*
X37120000Y-145250000D03*
X34580000Y-145250000D03*
X32040000Y-145250000D03*
D11*
X29500000Y-145250000D03*
G04 #@! TD*
D10*
G04 #@! TO.C,J12*
X35420000Y-39710000D03*
X35420000Y-42250000D03*
X37960000Y-39710000D03*
X37960000Y-42250000D03*
X40500000Y-39710000D03*
D11*
X40500000Y-42250000D03*
G04 #@! TD*
D12*
G04 #@! TO.C,J10*
X38960000Y-136290000D03*
X38960000Y-131210000D03*
X44040000Y-131210000D03*
X44040000Y-136290000D03*
D13*
X41500000Y-133750000D03*
G04 #@! TD*
D10*
G04 #@! TO.C,J5*
X26540000Y-71440000D03*
X24000000Y-71440000D03*
X26540000Y-68900000D03*
D11*
X24000000Y-68900000D03*
G04 #@! TD*
G04 #@! TO.C,J15*
X170600000Y-44900000D03*
D10*
X173140000Y-44900000D03*
X170600000Y-47440000D03*
X173140000Y-47440000D03*
G04 #@! TD*
D13*
G04 #@! TO.C,J19*
X146500000Y-134000000D03*
D12*
X149040000Y-136540000D03*
X149040000Y-131460000D03*
X143960000Y-131460000D03*
X143960000Y-136540000D03*
G04 #@! TD*
D14*
G04 #@! TO.C,U19*
X129000000Y-37750000D03*
X131540000Y-37750000D03*
X134080000Y-37750000D03*
X139160000Y-37750000D03*
X141700000Y-37750000D03*
X144240000Y-37750000D03*
X146780000Y-37750000D03*
G04 #@! TD*
D11*
G04 #@! TO.C,J33*
X271750000Y-91000000D03*
D10*
X271750000Y-93540000D03*
X271750000Y-96080000D03*
X271750000Y-98620000D03*
X271750000Y-101160000D03*
X271750000Y-103700000D03*
G04 #@! TD*
D11*
G04 #@! TO.C,J18*
X269000000Y-70000000D03*
D10*
X271540000Y-70000000D03*
X269000000Y-72540000D03*
X271540000Y-72540000D03*
X269000000Y-75080000D03*
X271540000Y-75080000D03*
X269000000Y-77620000D03*
X271540000Y-77620000D03*
X269000000Y-80160000D03*
X271540000Y-80160000D03*
X269000000Y-82700000D03*
X271540000Y-82700000D03*
X269000000Y-85240000D03*
X271540000Y-85240000D03*
G04 #@! TD*
D15*
G04 #@! TO.C,J17*
X86820000Y-37855000D03*
X78180000Y-37855000D03*
D16*
X86820000Y-33675000D03*
X78180000Y-33675000D03*
D17*
X79610000Y-37355000D03*
X85390000Y-37355000D03*
G04 #@! TD*
D10*
G04 #@! TO.C,J16*
X225960000Y-46000000D03*
D11*
X228500000Y-46000000D03*
G04 #@! TD*
D18*
G04 #@! TO.C,C2*
X122000000Y-39000000D03*
D19*
X117000000Y-39000000D03*
G04 #@! TD*
D10*
G04 #@! TO.C,JP4*
X237750000Y-141290000D03*
D11*
X237750000Y-138750000D03*
G04 #@! TD*
D10*
G04 #@! TO.C,JP3*
X204750000Y-141040000D03*
D11*
X204750000Y-138500000D03*
G04 #@! TD*
D10*
G04 #@! TO.C,J32*
X181440000Y-38210000D03*
X181440000Y-40750000D03*
X183980000Y-38210000D03*
X183980000Y-40750000D03*
X186520000Y-38210000D03*
X186520000Y-40750000D03*
X189060000Y-38210000D03*
X189060000Y-40750000D03*
X191600000Y-38210000D03*
X191600000Y-40750000D03*
X194140000Y-38210000D03*
X194140000Y-40750000D03*
X196680000Y-38210000D03*
X196680000Y-40750000D03*
X199220000Y-38210000D03*
X199220000Y-40750000D03*
X201760000Y-38210000D03*
X201760000Y-40750000D03*
X204300000Y-38210000D03*
X204300000Y-40750000D03*
X206840000Y-38210000D03*
X206840000Y-40750000D03*
X209380000Y-38210000D03*
X209380000Y-40750000D03*
X211920000Y-38210000D03*
X211920000Y-40750000D03*
X214460000Y-38210000D03*
X214460000Y-40750000D03*
X217000000Y-38210000D03*
D11*
X217000000Y-40750000D03*
G04 #@! TD*
D12*
G04 #@! TO.C,J31*
X214460000Y-142540000D03*
X214460000Y-137460000D03*
X219540000Y-137460000D03*
X219540000Y-142540000D03*
D13*
X217000000Y-140000000D03*
G04 #@! TD*
D12*
G04 #@! TO.C,J30*
X260710000Y-142540000D03*
X260710000Y-137460000D03*
X265790000Y-137460000D03*
X265790000Y-142540000D03*
D13*
X263250000Y-140000000D03*
G04 #@! TD*
D10*
G04 #@! TO.C,J29*
X181040000Y-107060000D03*
X178500000Y-107060000D03*
X181040000Y-104520000D03*
X178500000Y-104520000D03*
X181040000Y-101980000D03*
X178500000Y-101980000D03*
X181040000Y-99440000D03*
X178500000Y-99440000D03*
X181040000Y-96900000D03*
X178500000Y-96900000D03*
X181040000Y-94360000D03*
X178500000Y-94360000D03*
X181040000Y-91820000D03*
X178500000Y-91820000D03*
X181040000Y-89280000D03*
X178500000Y-89280000D03*
X181040000Y-86740000D03*
X178500000Y-86740000D03*
X181040000Y-84200000D03*
X178500000Y-84200000D03*
X181040000Y-81660000D03*
X178500000Y-81660000D03*
X181040000Y-79120000D03*
X178500000Y-79120000D03*
X181040000Y-76580000D03*
X178500000Y-76580000D03*
X181040000Y-74040000D03*
X178500000Y-74040000D03*
X181040000Y-71500000D03*
D11*
X178500000Y-71500000D03*
G04 #@! TD*
D12*
G04 #@! TO.C,J28*
X182210000Y-142540000D03*
X182210000Y-137460000D03*
X187290000Y-137460000D03*
X187290000Y-142540000D03*
D13*
X184750000Y-140000000D03*
G04 #@! TD*
D12*
G04 #@! TO.C,J27*
X246210000Y-142790000D03*
X246210000Y-137710000D03*
X251290000Y-137710000D03*
X251290000Y-142790000D03*
D13*
X248750000Y-140250000D03*
G04 #@! TD*
D12*
G04 #@! TO.C,J26*
X226210000Y-142540000D03*
X226210000Y-137460000D03*
X231290000Y-137460000D03*
X231290000Y-142540000D03*
D13*
X228750000Y-140000000D03*
G04 #@! TD*
D12*
G04 #@! TO.C,J25*
X194210000Y-142540000D03*
X194210000Y-137460000D03*
X199290000Y-137460000D03*
X199290000Y-142540000D03*
D13*
X196750000Y-140000000D03*
G04 #@! TD*
D10*
G04 #@! TO.C,J24*
X147620000Y-147250000D03*
X145080000Y-147250000D03*
X142540000Y-147250000D03*
D11*
X140000000Y-147250000D03*
G04 #@! TD*
D20*
G04 #@! TO.C,J23*
X123630000Y-148750000D03*
X126170000Y-148750000D03*
X128710000Y-148750000D03*
G36*
G01*
X132130000Y-147897873D02*
X132130000Y-149602127D01*
G75*
G02*
X131877127Y-149855000I-252873J0D01*
G01*
X130622873Y-149855000D01*
G75*
G02*
X130370000Y-149602127I0J252873D01*
G01*
X130370000Y-147897873D01*
G75*
G02*
X130622873Y-147645000I252873J0D01*
G01*
X131877127Y-147645000D01*
G75*
G02*
X132130000Y-147897873I0J-252873D01*
G01*
G37*
G04 #@! TD*
D12*
G04 #@! TO.C,J22*
X161960000Y-136540000D03*
X161960000Y-131460000D03*
X167040000Y-131460000D03*
X167040000Y-136540000D03*
D13*
X164500000Y-134000000D03*
G04 #@! TD*
D12*
G04 #@! TO.C,J21*
X107960000Y-136290000D03*
X107960000Y-131210000D03*
X113040000Y-131210000D03*
X113040000Y-136290000D03*
D13*
X110500000Y-133750000D03*
G04 #@! TD*
D12*
G04 #@! TO.C,J20*
X125710000Y-136540000D03*
X125710000Y-131460000D03*
X130790000Y-131460000D03*
X130790000Y-136540000D03*
D13*
X128250000Y-134000000D03*
G04 #@! TD*
D12*
G04 #@! TO.C,J6*
X224960000Y-39790000D03*
X224960000Y-34710000D03*
X230040000Y-34710000D03*
X230040000Y-39790000D03*
D13*
X227500000Y-37250000D03*
G04 #@! TD*
D10*
G04 #@! TO.C,J3*
X161170000Y-38000000D03*
X163710000Y-38000000D03*
D11*
X166250000Y-38000000D03*
G04 #@! TD*
D21*
G04 #@! TO.C,J1*
X106750000Y-43750000D03*
D22*
X106750000Y-37750000D03*
D23*
X111250000Y-36750000D03*
X102250000Y-36750000D03*
D18*
X106750000Y-34750000D03*
G04 #@! TD*
D24*
G04 #@! TO.C,U1*
X131000000Y-53750000D03*
X131000000Y-51718000D03*
X131000000Y-47654000D03*
X136080000Y-53750000D03*
X136080000Y-51718000D03*
X136080000Y-49686000D03*
G04 #@! TD*
M02*
