M48
; DRILL file {KiCad (5.1.6-0-10_14)} date Friday, October 01, 2021 at 11:36:49 AM
; FORMAT={-:-/ absolute / inch / decimal}
; #@! TF.CreationDate,2021-10-01T11:36:49+02:00
; #@! TF.GenerationSoftware,Kicad,Pcbnew,(5.1.6-0-10_14)
; #@! TF.FileFunction,Plated,1,4,PTH
FMAT,2
INCH
T1C0.0118
T2C0.0157
T3C0.0236
T4C0.0300
T5C0.0315
T6C0.0340
T7C0.0394
T8C0.0469
T9C0.0591
T10C0.0669
T11C0.1181
T12C0.1378
%
G90
G05
T1
X2.7756Y-3.622
X3.6535Y-2.874
X4.3228Y-2.3307
X4.4094Y-2.8642
X5.7402Y-4.0079
X6.1181Y-3.8031
X6.5059Y-2.7756
X7.1594Y-2.6122
X7.6378Y-2.5394
X7.7165Y-2.5197
X7.7264Y-2.9035
X7.7717Y-3.6909
X9.124Y-4.813
X9.4587Y-4.3602
X9.5315Y-4.2441
X9.5669Y-4.1437
X9.7913Y-3.9961
X9.8622Y-4.122
X9.9764Y-4.1063
X10.0157Y-4.0846
X10.2067Y-4.6358
X10.4291Y-3.4252
X10.4291Y-3.6516
X10.4291Y-3.8465
T2
X0.7717Y-4.3386
X0.7874Y-4.626
X0.7897Y-4.7247
X0.8228Y-4.0984
X0.8465Y-2.7756
X0.8858Y-2.9528
X0.8858Y-3.3268
X0.9055Y-3.878
X0.9055Y-4.5669
X0.9055Y-4.8819
X0.9154Y-3.6319
X0.9252Y-3.9764
X1.0Y-4.622
X1.0017Y-4.7247
X1.0827Y-4.5472
X1.122Y-4.7638
X1.1417Y-3.5945
X1.1417Y-3.8583
X1.1417Y-3.9961
X1.1535Y-2.5866
X1.1614Y-4.4291
X1.1614Y-4.8819
X1.1654Y-2.4173
X1.1811Y-4.1339
X1.2008Y-2.2736
X1.2598Y-3.3858
X1.2598Y-3.9961
X1.2598Y-4.5906
X1.2795Y-2.8386
X1.2795Y-3.7205
X1.2992Y-3.0709
X1.3189Y-3.5433
X1.3602Y-2.9429
X1.3602Y-4.1516
X1.3681Y-4.8248
X1.3937Y-4.6654
X1.4173Y-3.1299
X1.4764Y-3.5433
X1.4764Y-4.5866
X1.4867Y-3.6009
X1.4961Y-3.9173
X1.5064Y-2.6629
X1.5124Y-4.1782
X1.5354Y-3.2874
X1.5748Y-4.6693
X1.5945Y-4.252
X1.6043Y-4.8642
X1.6181Y-3.063
X1.6732Y-4.8819
X1.6831Y-4.6083
X1.6929Y-3.9252
X1.7008Y-2.126
X1.7224Y-4.1319
X1.7406Y-3.5556
X1.7421Y-2.9035
X1.7441Y-3.9892
X1.752Y-3.8386
X1.7559Y-4.4606
X1.7717Y-1.8819
X1.7717Y-3.1496
X1.7717Y-3.2874
X1.8248Y-4.4311
X1.8504Y-4.6654
X1.8898Y-2.7717
X2.063Y-4.3543
X2.0827Y-4.622
X2.0827Y-4.7244
X2.1339Y-2.4173
X2.1339Y-2.8819
X2.1378Y-4.7835
X2.1496Y-4.8898
X2.1555Y-2.2835
X2.1654Y-1.9291
X2.1654Y-1.998
X2.1654Y-3.3386
X2.1954Y-3.6319
X2.2205Y-3.9764
X2.2441Y-3.9016
X2.2736Y-2.1949
X2.2913Y-2.1024
X2.2953Y-4.622
X2.2953Y-4.7244
X2.315Y-2.126
X2.4016Y-2.5591
X2.4213Y-4.437
X2.4213Y-4.8031
X2.4252Y-3.5945
X2.4291Y-4.5157
X2.4764Y-4.0709
X2.5315Y-4.5669
X2.5354Y-4.3031
X2.561Y-2.8484
X2.5669Y-3.8661
X2.5748Y-3.0945
X2.5827Y-3.5551
X2.6457Y-4.1732
X2.6555Y-2.9429
X2.6594Y-4.8642
X2.6964Y-4.6658
X2.7677Y-4.6024
X2.7756Y-3.252
X2.7913Y-4.1969
X2.8031Y-3.9173
X2.815Y-2.6811
X2.8155Y-3.4646
X2.8543Y-2.0551
X2.8543Y-3.7402
X2.8656Y-4.6777
X2.874Y-4.4409
X2.8898Y-4.2559
X2.8957Y-4.8681
X2.8976Y-4.0079
X2.9252Y-4.5118
X2.937Y-3.0629
X2.9449Y-4.7441
X2.9744Y-4.6122
X2.9941Y-4.1358
X3.0079Y-3.3031
X3.0118Y-2.1752
X3.0157Y-3.8386
X3.0217Y-2.815
X3.0236Y-3.1535
X3.0236Y-4.4213
X3.0315Y-3.5669
X3.0374Y-3.9744
X3.0512Y-2.0472
X3.061Y-2.2835
X3.1102Y-1.9291
X3.1575Y-4.689
X3.185Y-4.8583
X3.2087Y-1.3189
X3.2205Y-2.4409
X3.2441Y-2.378
X3.2677Y-1.4567
X3.2677Y-1.9882
X3.2697Y-2.1358
X3.3086Y-1.7224
X3.3268Y-1.3386
X3.3389Y-2.5381
X3.3389Y-2.6381
X3.3416Y-2.7376
X3.376Y-2.6969
X3.3858Y-1.6831
X3.3858Y-3.6319
X3.4055Y-2.9232
X3.4154Y-2.5787
X3.4252Y-4.4193
X3.4449Y-1.8307
X3.4469Y-3.128
X3.4567Y-3.0315
X3.4744Y-2.8248
X3.4843Y-3.2874
X3.4843Y-4.4193
X3.5138Y-1.3386
X3.5236Y-1.7224
X3.5509Y-2.5381
X3.5768Y-2.6381
X3.5827Y-4.1535
X3.5903Y-3.5322
X3.6024Y-1.6339
X3.622Y-2.5945
X3.6654Y-4.0354
X3.6693Y-2.5315
X3.6713Y-2.3228
X3.7402Y-1.5551
X3.7402Y-2.185
X3.7598Y-2.0079
X3.7598Y-2.0472
X3.7746Y-3.253
X3.7795Y-1.5551
X3.7795Y-2.9331
X3.7992Y-3.5335
X3.8484Y-1.3189
X3.8484Y-1.7323
X3.8484Y-2.4705
X3.8583Y-2.626
X3.8666Y-2.8853
X3.8681Y-1.811
X3.8681Y-2.0571
X3.878Y-3.1102
X3.8976Y-2.815
X3.9075Y-2.5394
X3.9173Y-3.0118
X3.9173Y-4.4193
X3.9173Y-4.7146
X3.9272Y-2.1949
X3.937Y-1.437
X3.9567Y-4.4193
X3.9764Y-2.8248
X4.0207Y-4.1486
X4.0256Y-2.7461
X4.0551Y-2.7067
X4.065Y-2.7657
X4.0846Y-1.5256
X4.0945Y-1.3681
X4.1024Y-4.0354
X4.1142Y-2.5492
X4.1289Y-2.1309
X4.1634Y-2.8248
X4.1649Y-2.4296
X4.2126Y-2.687
X4.2126Y-3.2677
X4.2224Y-3.6319
X4.2323Y-2.5787
X4.2323Y-2.874
X4.2421Y-2.4311
X4.3012Y-1.3583
X4.311Y-2.5197
X4.3406Y-3.3957
X4.3406Y-4.4291
X4.3425Y-3.1378
X4.3465Y-3.0315
X4.3701Y-4.4291
X4.4193Y-2.4311
X4.4291Y-2.2244
X4.4488Y-1.7028
X4.5374Y-1.3484
X4.5374Y-2.6181
X4.5423Y-4.1388
X4.5472Y-2.3228
X4.5768Y-3.1398
X4.5965Y-4.0453
X4.6063Y-3.4154
X4.654Y-3.781
X4.685Y-2.874
X4.6949Y-3.8386
X4.7638Y-1.8799
X4.7736Y-2.4902
X4.7785Y-5.2904
X4.8031Y-2.5984
X4.811Y-2.2244
X4.8327Y-4.4291
X4.8327Y-4.7244
X4.8524Y-1.8406
X4.872Y-4.4291
X4.8917Y-1.7323
X4.8917Y-3.7146
X4.9016Y-1.9882
X4.9016Y-3.1693
X4.9213Y-1.4469
X4.9262Y-4.1486
X4.9409Y-3.6319
X4.9803Y-3.6811
X4.9803Y-3.9075
X4.9902Y-2.5984
X5.0157Y-4.0551
X5.0492Y-1.8799
X5.0591Y-3.4547
X5.0679Y-3.5837
X5.0787Y-3.7894
X5.0984Y-2.874
X5.1007Y-2.7743
X5.1083Y-2.4409
X5.1969Y-3.6811
X5.1969Y-3.9173
X5.2087Y-2.2638
X5.2165Y-3.8681
X5.2559Y-3.1693
X5.2756Y-2.0866
X5.2854Y-4.439
X5.2854Y-4.7343
X5.31Y-3.7844
X5.315Y-2.7756
X5.315Y-2.874
X5.3248Y-4.439
X5.3593Y-4.1683
X5.3642Y-3.5827
X5.374Y-1.4272
X5.3937Y-4.4488
X5.4134Y-3.2677
X5.4429Y-3.3858
X5.4528Y-3.5925
X5.4626Y-2.5984
X5.4626Y-3.6909
X5.4626Y-4.0846
X5.4823Y-3.8878
X5.5315Y-2.4114
X5.5512Y-2.5906
X5.5669Y-3.0
X5.5807Y-2.185
X5.5807Y-2.9035
X5.5906Y-3.111
X5.5906Y-3.2874
X5.6004Y-1.9193
X5.6088Y-3.4759
X5.6299Y-3.6319
X5.6457Y-3.1614
X5.6791Y-1.752
X5.685Y-2.4055
X5.6988Y-3.3661
X5.6988Y-4.4488
X5.7003Y-3.9257
X5.7283Y-4.7441
X5.7382Y-3.189
X5.748Y-3.75
X5.7579Y-2.5984
X5.7579Y-4.4488
X5.7776Y-2.7953
X5.8056Y-3.4857
X5.815Y-2.437
X5.8209Y-3.2736
X5.8209Y-3.313
X5.8524Y-3.2736
X5.8524Y-3.313
X5.8661Y-2.9528
X5.876Y-3.376
X5.876Y-4.2224
X5.8957Y-3.4646
X5.9252Y-3.9469
X5.935Y-2.8248
X5.935Y-3.1791
X5.9426Y-4.7444
X5.9449Y-1.7421
X5.9596Y-3.9911
X5.9685Y-4.1732
X5.9744Y-3.376
X5.9744Y-3.5433
X5.9843Y-2.1654
X6.0039Y-2.4114
X6.0315Y-3.0945
X6.0531Y-1.8504
X6.0531Y-2.8346
X6.063Y-2.4114
X6.0714Y-3.4857
X6.0728Y-3.6614
X6.0812Y-3.3282
X6.0925Y-1.7421
X6.0925Y-3.7697
X6.1117Y-1.8509
X6.1122Y-4.3307
X6.1796Y-3.8863
X6.1909Y-4.4488
X6.1909Y-4.7441
X6.1919Y-2.1663
X6.2205Y-2.1063
X6.2303Y-1.5256
X6.2303Y-4.4488
X6.2402Y-1.4272
X6.25Y-2.7756
X6.25Y-3.0217
X6.2756Y-4.8465
X6.2894Y-3.2283
X6.2992Y-4.1732
X6.2992Y-4.7146
X6.315Y-3.8681
X6.3189Y-2.5098
X6.3248Y-3.5925
X6.3386Y-1.9685
X6.3583Y-3.1102
X6.3681Y-2.4311
X6.3878Y-2.1949
X6.3878Y-2.4803
X6.4173Y-2.4213
X6.4286Y-3.5546
X6.4469Y-1.8602
X6.4764Y-2.9528
X6.4847Y-2.5197
X6.4862Y-1.9587
X6.5059Y-4.3307
X6.5256Y-4.1602
X6.5354Y-4.0551
X6.565Y-3.6024
X6.5748Y-3.7008
X6.593Y-2.9528
X6.624Y-2.7756
X6.624Y-4.439
X6.6634Y-4.439
X6.6929Y-2.3622
X6.6929Y-4.0945
X6.7028Y-1.4961
X6.7126Y-2.8543
X6.7323Y-2.9823
X6.7421Y-2.4311
X6.7594Y-3.9847
X6.7792Y-3.7026
X6.811Y-2.5394
X6.8189Y-2.2126
X6.8504Y-2.9035
X6.8504Y-3.4843
X6.9277Y-2.2731
X6.9291Y-2.5492
X6.9488Y-4.7343
X6.9587Y-1.7913
X6.9587Y-1.8701
X6.9783Y-2.0866
X6.9783Y-2.0866
X7.0276Y-4.4488
X7.0315Y-2.2446
X7.0374Y-2.5295
X7.0669Y-4.4488
X7.0768Y-1.9783
X7.2126Y-3.1575
X7.2352Y-3.2096
X7.3622Y-4.1339
X7.372Y-2.2244
X7.372Y-3.2185
X7.4016Y-2.5984
X7.4092Y-2.0866
X7.4137Y-2.2365
X7.4902Y-4.4488
X7.4902Y-4.7441
X7.498Y-3.1752
X7.5Y-4.0354
X7.5059Y-3.4705
X7.5098Y-3.5827
X7.5197Y-4.4488
X7.5256Y-3.2972
X7.561Y-3.5846
X7.5896Y-2.1939
X7.6122Y-3.6909
X7.6181Y-2.2343
X7.6299Y-4.2717
X7.6673Y-2.7657
X7.6772Y-2.6673
X7.6772Y-4.2559
X7.7067Y-2.2244
X7.7067Y-2.8051
X7.7461Y-3.3563
X7.7461Y-4.1437
X7.8189Y-3.9803
X7.8248Y-3.5433
X7.9232Y-3.6516
X7.9528Y-3.1398
X8.0118Y-3.563
X8.0906Y-2.9724
X8.0906Y-3.1693
X8.0906Y-3.2677
X8.1004Y-2.0669
X8.1004Y-2.4803
X8.1004Y-2.8642
X8.1004Y-3.7106
X8.1102Y-2.7657
X8.1398Y-2.4114
X8.1594Y-4.1535
X8.2441Y-4.1732
X8.2776Y-1.3976
X8.3957Y-4.6358
X8.5236Y-4.8228
X8.5827Y-2.2047
X8.6024Y-4.065
X8.7126Y-2.1339
X8.7441Y-2.9291
X8.8189Y-2.9134
X8.8287Y-1.9094
X8.937Y-1.9094
X8.9449Y-4.248
X9.0984Y-4.4833
X9.1102Y-4.1654
X9.1142Y-4.2126
X9.1378Y-3.7165
X9.1535Y-3.8386
X9.1654Y-4.4055
X9.1693Y-4.5433
X9.1831Y-4.6457
X9.2008Y-3.9252
X9.2087Y-4.0157
X9.2126Y-3.878
X9.2224Y-4.1339
X9.2244Y-4.2559
X9.2618Y-1.7323
X9.2677Y-4.5463
X9.2815Y-2.7657
X9.2815Y-3.8878
X9.2913Y-3.189
X9.3209Y-3.4547
X9.3465Y-4.4488
X9.3504Y-4.5118
X9.3602Y-4.6358
X9.3799Y-3.5925
X9.4094Y-1.5157
X9.4587Y-4.5177
X9.5157Y-3.9921
X9.5669Y-4.5984
X9.5748Y-4.1063
X9.5965Y-4.5472
X9.6063Y-4.6949
X9.6294Y-4.3814
X9.6299Y-3.8071
X9.6388Y-3.9026
X9.6462Y-4.3351
X9.6739Y-4.4574
X9.689Y-4.2992
X9.6929Y-3.374
X9.7126Y-4.0827
X9.72Y-4.2643
X9.7244Y-1.8012
X9.7244Y-4.0354
X9.7323Y-3.0433
X9.7402Y-3.5354
X9.7402Y-3.6772
X9.7402Y-4.4528
X9.7441Y-3.4803
X9.7682Y-4.1265
X9.7717Y-3.8189
X9.7736Y-2.7953
X9.7835Y-3.7126
X9.7835Y-4.0315
X9.7879Y-4.4887
X9.7913Y-4.2126
X9.7933Y-1.5256
X9.8105Y-4.0901
X9.8205Y-3.8288
X9.8258Y-4.2913
X9.8268Y-4.0236
X9.8268Y-4.1654
X9.8376Y-3.9813
X9.8425Y-3.2972
X9.8504Y-3.8031
X9.861Y-4.4516
X9.8652Y-4.2589
X9.872Y-3.4646
X9.872Y-4.6949
X9.8917Y-4.2933
X9.8937Y-4.5157
X9.8963Y-4.0402
X9.9173Y-4.0945
X9.9183Y-3.7598
X9.9193Y-4.4426
X9.9213Y-1.6831
X9.9213Y-4.1969
X9.9291Y-3.8071
X9.9331Y-4.2874
X9.9372Y-4.0396
X9.9409Y-1.5945
X9.9528Y-4.5551
X9.9606Y-4.1457
X9.9606Y-4.8228
X9.9685Y-3.8307
X9.9759Y-4.2879
X9.9961Y-4.1811
X10.0118Y-3.8425
X10.0157Y-3.9685
X10.0157Y-4.0197
X10.0984Y-4.3701
X10.1181Y-2.8543
X10.128Y-3.2283
X10.1466Y-4.0453
X10.1486Y-4.1654
X10.1614Y-4.2047
X10.1673Y-3.0709
X10.1673Y-4.4587
X10.1772Y-4.2756
X10.187Y-3.7205
X10.187Y-4.3307
X10.2087Y-4.2165
X10.2559Y-3.5531
X10.2657Y-3.2972
X10.2756Y-1.9193
X10.2953Y-3.6929
X10.3031Y-4.2205
X10.3642Y-3.8681
X10.374Y-4.2618
X10.374Y-4.6752
X10.378Y-4.3898
X10.4232Y-2.7461
X10.437Y-3.0551
X10.4409Y-2.9961
X10.4528Y-4.1929
X10.4921Y-4.7146
X10.5433Y-4.311
X10.561Y-3.4252
X10.5709Y-3.5157
X10.6004Y-4.0453
X10.689Y-4.2618
X10.7185Y-1.811
X10.8268Y-4.437
X10.8563Y-4.6457
T4
X5.0787Y-1.4862
X5.1787Y-1.4862
X5.2787Y-1.4862
X5.4787Y-1.4862
X5.5787Y-1.4862
X5.6787Y-1.4862
X5.7787Y-1.4862
T5
X4.6063Y-1.5354
X4.8031Y-1.5354
T6
X5.1575Y-1.8761
X5.1575Y-2.0361
X5.1575Y-2.1161
X5.3575Y-1.9561
X5.3575Y-2.0361
X5.3575Y-2.1161
T7
X2.2386Y-2.7126
X2.2386Y-2.8126
X2.3386Y-2.7126
X2.3386Y-2.8126
X6.7165Y-1.7677
X6.7165Y-1.8677
X6.8165Y-1.7677
X6.8165Y-1.8677
X7.1433Y-1.5043
X7.1433Y-1.6043
X7.2433Y-1.5043
X7.2433Y-1.6043
X7.3433Y-1.5043
X7.3433Y-1.6043
X7.4433Y-1.5043
X7.4433Y-1.6043
X7.5433Y-1.5043
X7.5433Y-1.6043
X7.6433Y-1.5043
X7.6433Y-1.6043
X7.7433Y-1.5043
X7.7433Y-1.6043
X7.8433Y-1.5043
X7.8433Y-1.6043
X7.9433Y-1.5043
X7.9433Y-1.6043
X8.0433Y-1.5043
X8.0433Y-1.6043
X8.1433Y-1.5043
X8.1433Y-1.6043
X8.2433Y-1.5043
X8.2433Y-1.6043
X8.3433Y-1.5043
X8.3433Y-1.6043
X8.4433Y-1.5043
X8.4433Y-1.6043
X8.5433Y-1.5043
X8.5433Y-1.6043
X8.8961Y-1.811
X8.9961Y-1.811
X5.5118Y-5.7972
X5.6118Y-5.7972
X5.7118Y-5.7972
X5.8118Y-5.7972
X2.4969Y-1.5634
X2.4969Y-1.6634
X2.5969Y-1.5634
X2.5969Y-1.6634
X2.6969Y-1.5634
X2.6969Y-1.6634
X10.5906Y-2.7559
X10.5906Y-2.8559
X10.5906Y-2.9559
X10.5906Y-3.0559
X10.5906Y-3.1559
X10.5906Y-3.2559
X10.5906Y-3.3559
X10.6906Y-2.7559
X10.6906Y-2.8559
X10.6906Y-2.9559
X10.6906Y-3.0559
X10.6906Y-3.1559
X10.6906Y-3.2559
X10.6906Y-3.3559
X7.0276Y-2.815
X7.0276Y-2.915
X7.0276Y-3.015
X7.0276Y-3.115
X7.0276Y-3.215
X7.0276Y-3.315
X7.0276Y-3.415
X7.0276Y-3.515
X7.0276Y-3.615
X7.0276Y-3.715
X7.0276Y-3.815
X7.0276Y-3.915
X7.0276Y-4.015
X7.0276Y-4.115
X7.0276Y-4.215
X7.1276Y-2.815
X7.1276Y-2.915
X7.1276Y-3.015
X7.1276Y-3.115
X7.1276Y-3.215
X7.1276Y-3.315
X7.1276Y-3.415
X7.1276Y-3.515
X7.1276Y-3.615
X7.1276Y-3.715
X7.1276Y-3.815
X7.1276Y-3.915
X7.1276Y-4.015
X7.1276Y-4.115
X7.1276Y-4.215
X1.1614Y-5.7185
X1.2614Y-5.7185
X1.3614Y-5.7185
X1.4614Y-5.7185
X2.5295Y-5.7382
X2.6295Y-5.7382
X2.7295Y-5.7382
X2.8295Y-5.7382
X10.6988Y-3.5827
X10.6988Y-3.6827
X10.6988Y-3.7827
X10.6988Y-3.8827
X10.6988Y-3.9827
X10.6988Y-4.0827
X9.3602Y-5.4626
X9.3602Y-5.5626
X6.3453Y-1.4961
X6.4453Y-1.4961
X6.5453Y-1.4961
X8.061Y-5.4528
X8.061Y-5.5528
X1.3945Y-1.5634
X1.3945Y-1.6634
X1.4945Y-1.5634
X1.4945Y-1.6634
X1.5945Y-1.5634
X1.5945Y-1.6634
X0.9449Y-2.7126
X0.9449Y-2.8126
X1.0449Y-2.7126
X1.0449Y-2.8126
T8
X4.8673Y-5.8563
X4.9673Y-5.8563
X5.0673Y-5.8563
X5.1673Y-5.8563
T9
X4.3504Y-5.2657
X9.7933Y-5.5217
X2.3228Y-5.2756
X5.0492Y-5.2756
X9.0059Y-5.5118
X1.0138Y-5.2756
X8.9567Y-1.4665
X5.7677Y-5.2756
X1.6339Y-5.2657
X3.0315Y-5.2854
X8.5433Y-5.5118
X7.7461Y-5.5118
X6.4764Y-5.2756
X10.3642Y-5.5118
X7.2736Y-5.5118
T10
X4.9492Y-5.1756
X4.9492Y-5.3756
X5.1492Y-5.1756
X5.1492Y-5.3756
X8.9059Y-5.4118
X8.9059Y-5.6118
X9.1059Y-5.4118
X9.1059Y-5.6118
X0.9138Y-5.1756
X0.9138Y-5.3756
X1.1138Y-5.1756
X1.1138Y-5.3756
X8.8567Y-1.3665
X8.8567Y-1.5665
X9.0567Y-1.3665
X9.0567Y-1.5665
X5.6677Y-5.1756
X5.6677Y-5.3756
X5.8677Y-5.1756
X5.8677Y-5.3756
X1.5339Y-5.1657
X1.5339Y-5.3657
X1.7339Y-5.1657
X1.7339Y-5.3657
X2.9315Y-5.1854
X2.9315Y-5.3854
X3.1315Y-5.1854
X3.1315Y-5.3854
X8.4433Y-5.4118
X8.4433Y-5.6118
X8.6433Y-5.4118
X8.6433Y-5.6118
X7.6461Y-5.4118
X7.6461Y-5.6118
X7.8461Y-5.4118
X7.8461Y-5.6118
X6.3764Y-5.1756
X6.3764Y-5.3756
X6.5764Y-5.1756
X6.5764Y-5.3756
X10.2642Y-5.4118
X10.2642Y-5.6118
X10.4642Y-5.4118
X10.4642Y-5.6118
X7.1736Y-5.4118
X7.1736Y-5.6118
X7.3736Y-5.4118
X7.3736Y-5.6118
X4.2504Y-5.1657
X4.2504Y-5.3657
X4.4504Y-5.1657
X4.4504Y-5.3657
X9.6933Y-5.4217
X9.6933Y-5.6217
X9.8933Y-5.4217
X9.8933Y-5.6217
X2.2228Y-5.1756
X2.2228Y-5.3756
X2.4228Y-5.1756
X2.4228Y-5.3756
T11
X4.6555Y-5.6004
X10.8189Y-5.4764
T12
X0.8768Y-1.4461
X0.8807Y-5.7764
X6.9079Y-1.426
X8.2244Y-4.752
X8.248Y-2.2913
X10.6772Y-4.7441
X10.6811Y-2.2638
X10.8181Y-1.4618
T3
G00X3.078Y-1.3376
M15
G01X3.078Y-1.314
M16
G05
G00X3.078Y-1.512
M15
G01X3.078Y-1.4687
M16
G05
G00X3.4181Y-1.3376
M15
G01X3.4181Y-1.314
M16
G05
G00X3.4181Y-1.512
M15
G01X3.4181Y-1.4687
M16
G05
T7
G00X4.0256Y-1.4764
M15
G01X4.0256Y-1.4173
M16
G05
G00X4.2283Y-1.4862
M15
G01X4.1772Y-1.4862
M16
G05
G00X4.2421Y-1.7224
M15
G01X4.1634Y-1.7224
M16
G05
G00X4.3799Y-1.4764
M15
G01X4.3799Y-1.4173
M16
G05
T0
M30
