G04 #@! TF.GenerationSoftware,KiCad,Pcbnew,(5.1.10-1-10_14)*
G04 #@! TF.CreationDate,2022-01-04T14:49:55+01:00*
G04 #@! TF.ProjectId,BioZ_front_end_V2_1,42696f5a-5f66-4726-9f6e-745f656e645f,rev?*
G04 #@! TF.SameCoordinates,Original*
G04 #@! TF.FileFunction,Soldermask,Bot*
G04 #@! TF.FilePolarity,Negative*
%FSLAX46Y46*%
G04 Gerber Fmt 4.6, Leading zero omitted, Abs format (unit mm)*
G04 Created by KiCad (PCBNEW (5.1.10-1-10_14)) date 2022-01-04 14:49:55*
%MOMM*%
%LPD*%
G01*
G04 APERTURE LIST*
%ADD10O,1.720000X1.720000*%
%ADD11C,2.270000*%
%ADD12C,2.070000*%
%ADD13C,1.290000*%
%ADD14O,1.020000X2.120000*%
%ADD15O,1.020000X1.620000*%
%ADD16C,0.670000*%
%ADD17C,1.620000*%
%ADD18O,1.760000X2.210000*%
%ADD19O,3.320000X2.020000*%
%ADD20O,2.020000X3.520000*%
%ADD21C,1.391600*%
G04 APERTURE END LIST*
D10*
G04 #@! TO.C,J4*
X59400000Y-71440000D03*
X56860000Y-71440000D03*
X59400000Y-68900000D03*
G36*
G01*
X56000000Y-69750000D02*
X56000000Y-68050000D01*
G75*
G02*
X56010000Y-68040000I10000J0D01*
G01*
X57710000Y-68040000D01*
G75*
G02*
X57720000Y-68050000I0J-10000D01*
G01*
X57720000Y-69750000D01*
G75*
G02*
X57710000Y-69760000I-10000J0D01*
G01*
X56010000Y-69760000D01*
G75*
G02*
X56000000Y-69750000I0J10000D01*
G01*
G37*
G04 #@! TD*
G04 #@! TO.C,J13*
X71870000Y-145750000D03*
X69330000Y-145750000D03*
X66790000Y-145750000D03*
G36*
G01*
X65100000Y-146610000D02*
X63400000Y-146610000D01*
G75*
G02*
X63390000Y-146600000I0J10000D01*
G01*
X63390000Y-144900000D01*
G75*
G02*
X63400000Y-144890000I10000J0D01*
G01*
X65100000Y-144890000D01*
G75*
G02*
X65110000Y-144900000I0J-10000D01*
G01*
X65110000Y-146600000D01*
G75*
G02*
X65100000Y-146610000I-10000J0D01*
G01*
G37*
G04 #@! TD*
G04 #@! TO.C,J11*
X63420000Y-39710000D03*
X63420000Y-42250000D03*
X65960000Y-39710000D03*
X65960000Y-42250000D03*
X68500000Y-39710000D03*
G36*
G01*
X67650000Y-41390000D02*
X69350000Y-41390000D01*
G75*
G02*
X69360000Y-41400000I0J-10000D01*
G01*
X69360000Y-43100000D01*
G75*
G02*
X69350000Y-43110000I-10000J0D01*
G01*
X67650000Y-43110000D01*
G75*
G02*
X67640000Y-43100000I0J10000D01*
G01*
X67640000Y-41400000D01*
G75*
G02*
X67650000Y-41390000I10000J0D01*
G01*
G37*
G04 #@! TD*
D11*
G04 #@! TO.C,J8*
X74460000Y-136790000D03*
X74460000Y-131710000D03*
X79540000Y-131710000D03*
X79540000Y-136790000D03*
D12*
X77000000Y-134250000D03*
G04 #@! TD*
D11*
G04 #@! TO.C,J7*
X56460000Y-136540000D03*
X56460000Y-131460000D03*
X61540000Y-131460000D03*
X61540000Y-136540000D03*
D12*
X59000000Y-134000000D03*
G04 #@! TD*
D11*
G04 #@! TO.C,J9*
X23210000Y-136540000D03*
X23210000Y-131460000D03*
X28290000Y-131460000D03*
X28290000Y-136540000D03*
D12*
X25750000Y-134000000D03*
G04 #@! TD*
D10*
G04 #@! TO.C,J14*
X37120000Y-145250000D03*
X34580000Y-145250000D03*
X32040000Y-145250000D03*
G36*
G01*
X30350000Y-146110000D02*
X28650000Y-146110000D01*
G75*
G02*
X28640000Y-146100000I0J10000D01*
G01*
X28640000Y-144400000D01*
G75*
G02*
X28650000Y-144390000I10000J0D01*
G01*
X30350000Y-144390000D01*
G75*
G02*
X30360000Y-144400000I0J-10000D01*
G01*
X30360000Y-146100000D01*
G75*
G02*
X30350000Y-146110000I-10000J0D01*
G01*
G37*
G04 #@! TD*
G04 #@! TO.C,J12*
X35420000Y-39710000D03*
X35420000Y-42250000D03*
X37960000Y-39710000D03*
X37960000Y-42250000D03*
X40500000Y-39710000D03*
G36*
G01*
X39650000Y-41390000D02*
X41350000Y-41390000D01*
G75*
G02*
X41360000Y-41400000I0J-10000D01*
G01*
X41360000Y-43100000D01*
G75*
G02*
X41350000Y-43110000I-10000J0D01*
G01*
X39650000Y-43110000D01*
G75*
G02*
X39640000Y-43100000I0J10000D01*
G01*
X39640000Y-41400000D01*
G75*
G02*
X39650000Y-41390000I10000J0D01*
G01*
G37*
G04 #@! TD*
D11*
G04 #@! TO.C,J10*
X38960000Y-136290000D03*
X38960000Y-131210000D03*
X44040000Y-131210000D03*
X44040000Y-136290000D03*
D12*
X41500000Y-133750000D03*
G04 #@! TD*
D10*
G04 #@! TO.C,J5*
X26540000Y-71440000D03*
X24000000Y-71440000D03*
X26540000Y-68900000D03*
G36*
G01*
X23140000Y-69750000D02*
X23140000Y-68050000D01*
G75*
G02*
X23150000Y-68040000I10000J0D01*
G01*
X24850000Y-68040000D01*
G75*
G02*
X24860000Y-68050000I0J-10000D01*
G01*
X24860000Y-69750000D01*
G75*
G02*
X24850000Y-69760000I-10000J0D01*
G01*
X23150000Y-69760000D01*
G75*
G02*
X23140000Y-69750000I0J10000D01*
G01*
G37*
G04 #@! TD*
G04 #@! TO.C,J15*
G36*
G01*
X169740000Y-45750000D02*
X169740000Y-44050000D01*
G75*
G02*
X169750000Y-44040000I10000J0D01*
G01*
X171450000Y-44040000D01*
G75*
G02*
X171460000Y-44050000I0J-10000D01*
G01*
X171460000Y-45750000D01*
G75*
G02*
X171450000Y-45760000I-10000J0D01*
G01*
X169750000Y-45760000D01*
G75*
G02*
X169740000Y-45750000I0J10000D01*
G01*
G37*
X173140000Y-44900000D03*
X170600000Y-47440000D03*
X173140000Y-47440000D03*
G04 #@! TD*
D12*
G04 #@! TO.C,J19*
X146500000Y-134000000D03*
D11*
X149040000Y-136540000D03*
X149040000Y-131460000D03*
X143960000Y-131460000D03*
X143960000Y-136540000D03*
G04 #@! TD*
D13*
G04 #@! TO.C,U19*
X129000000Y-37750000D03*
X131540000Y-37750000D03*
X134080000Y-37750000D03*
X139160000Y-37750000D03*
X141700000Y-37750000D03*
X144240000Y-37750000D03*
X146780000Y-37750000D03*
G04 #@! TD*
G04 #@! TO.C,J33*
G36*
G01*
X270890000Y-91850000D02*
X270890000Y-90150000D01*
G75*
G02*
X270900000Y-90140000I10000J0D01*
G01*
X272600000Y-90140000D01*
G75*
G02*
X272610000Y-90150000I0J-10000D01*
G01*
X272610000Y-91850000D01*
G75*
G02*
X272600000Y-91860000I-10000J0D01*
G01*
X270900000Y-91860000D01*
G75*
G02*
X270890000Y-91850000I0J10000D01*
G01*
G37*
D10*
X271750000Y-93540000D03*
X271750000Y-96080000D03*
X271750000Y-98620000D03*
X271750000Y-101160000D03*
X271750000Y-103700000D03*
G04 #@! TD*
G04 #@! TO.C,J18*
G36*
G01*
X268140000Y-70850000D02*
X268140000Y-69150000D01*
G75*
G02*
X268150000Y-69140000I10000J0D01*
G01*
X269850000Y-69140000D01*
G75*
G02*
X269860000Y-69150000I0J-10000D01*
G01*
X269860000Y-70850000D01*
G75*
G02*
X269850000Y-70860000I-10000J0D01*
G01*
X268150000Y-70860000D01*
G75*
G02*
X268140000Y-70850000I0J10000D01*
G01*
G37*
X271540000Y-70000000D03*
X269000000Y-72540000D03*
X271540000Y-72540000D03*
X269000000Y-75080000D03*
X271540000Y-75080000D03*
X269000000Y-77620000D03*
X271540000Y-77620000D03*
X269000000Y-80160000D03*
X271540000Y-80160000D03*
X269000000Y-82700000D03*
X271540000Y-82700000D03*
X269000000Y-85240000D03*
X271540000Y-85240000D03*
G04 #@! TD*
D14*
G04 #@! TO.C,J17*
X86820000Y-37855000D03*
X78180000Y-37855000D03*
D15*
X86820000Y-33675000D03*
X78180000Y-33675000D03*
D16*
X79610000Y-37355000D03*
X85390000Y-37355000D03*
G04 #@! TD*
D10*
G04 #@! TO.C,J16*
X225960000Y-46000000D03*
G36*
G01*
X227650000Y-45140000D02*
X229350000Y-45140000D01*
G75*
G02*
X229360000Y-45150000I0J-10000D01*
G01*
X229360000Y-46850000D01*
G75*
G02*
X229350000Y-46860000I-10000J0D01*
G01*
X227650000Y-46860000D01*
G75*
G02*
X227640000Y-46850000I0J10000D01*
G01*
X227640000Y-45150000D01*
G75*
G02*
X227650000Y-45140000I10000J0D01*
G01*
G37*
G04 #@! TD*
D17*
G04 #@! TO.C,C2*
X122000000Y-39000000D03*
G36*
G01*
X116190000Y-39800000D02*
X116190000Y-38200000D01*
G75*
G02*
X116200000Y-38190000I10000J0D01*
G01*
X117800000Y-38190000D01*
G75*
G02*
X117810000Y-38200000I0J-10000D01*
G01*
X117810000Y-39800000D01*
G75*
G02*
X117800000Y-39810000I-10000J0D01*
G01*
X116200000Y-39810000D01*
G75*
G02*
X116190000Y-39800000I0J10000D01*
G01*
G37*
G04 #@! TD*
D10*
G04 #@! TO.C,JP4*
X237750000Y-141290000D03*
G36*
G01*
X236890000Y-139600000D02*
X236890000Y-137900000D01*
G75*
G02*
X236900000Y-137890000I10000J0D01*
G01*
X238600000Y-137890000D01*
G75*
G02*
X238610000Y-137900000I0J-10000D01*
G01*
X238610000Y-139600000D01*
G75*
G02*
X238600000Y-139610000I-10000J0D01*
G01*
X236900000Y-139610000D01*
G75*
G02*
X236890000Y-139600000I0J10000D01*
G01*
G37*
G04 #@! TD*
G04 #@! TO.C,JP3*
X204750000Y-141040000D03*
G36*
G01*
X203890000Y-139350000D02*
X203890000Y-137650000D01*
G75*
G02*
X203900000Y-137640000I10000J0D01*
G01*
X205600000Y-137640000D01*
G75*
G02*
X205610000Y-137650000I0J-10000D01*
G01*
X205610000Y-139350000D01*
G75*
G02*
X205600000Y-139360000I-10000J0D01*
G01*
X203900000Y-139360000D01*
G75*
G02*
X203890000Y-139350000I0J10000D01*
G01*
G37*
G04 #@! TD*
G04 #@! TO.C,J32*
X181440000Y-38210000D03*
X181440000Y-40750000D03*
X183980000Y-38210000D03*
X183980000Y-40750000D03*
X186520000Y-38210000D03*
X186520000Y-40750000D03*
X189060000Y-38210000D03*
X189060000Y-40750000D03*
X191600000Y-38210000D03*
X191600000Y-40750000D03*
X194140000Y-38210000D03*
X194140000Y-40750000D03*
X196680000Y-38210000D03*
X196680000Y-40750000D03*
X199220000Y-38210000D03*
X199220000Y-40750000D03*
X201760000Y-38210000D03*
X201760000Y-40750000D03*
X204300000Y-38210000D03*
X204300000Y-40750000D03*
X206840000Y-38210000D03*
X206840000Y-40750000D03*
X209380000Y-38210000D03*
X209380000Y-40750000D03*
X211920000Y-38210000D03*
X211920000Y-40750000D03*
X214460000Y-38210000D03*
X214460000Y-40750000D03*
X217000000Y-38210000D03*
G36*
G01*
X216150000Y-39890000D02*
X217850000Y-39890000D01*
G75*
G02*
X217860000Y-39900000I0J-10000D01*
G01*
X217860000Y-41600000D01*
G75*
G02*
X217850000Y-41610000I-10000J0D01*
G01*
X216150000Y-41610000D01*
G75*
G02*
X216140000Y-41600000I0J10000D01*
G01*
X216140000Y-39900000D01*
G75*
G02*
X216150000Y-39890000I10000J0D01*
G01*
G37*
G04 #@! TD*
D11*
G04 #@! TO.C,J31*
X214460000Y-142540000D03*
X214460000Y-137460000D03*
X219540000Y-137460000D03*
X219540000Y-142540000D03*
D12*
X217000000Y-140000000D03*
G04 #@! TD*
D11*
G04 #@! TO.C,J30*
X260710000Y-142540000D03*
X260710000Y-137460000D03*
X265790000Y-137460000D03*
X265790000Y-142540000D03*
D12*
X263250000Y-140000000D03*
G04 #@! TD*
D10*
G04 #@! TO.C,J29*
X181040000Y-107060000D03*
X178500000Y-107060000D03*
X181040000Y-104520000D03*
X178500000Y-104520000D03*
X181040000Y-101980000D03*
X178500000Y-101980000D03*
X181040000Y-99440000D03*
X178500000Y-99440000D03*
X181040000Y-96900000D03*
X178500000Y-96900000D03*
X181040000Y-94360000D03*
X178500000Y-94360000D03*
X181040000Y-91820000D03*
X178500000Y-91820000D03*
X181040000Y-89280000D03*
X178500000Y-89280000D03*
X181040000Y-86740000D03*
X178500000Y-86740000D03*
X181040000Y-84200000D03*
X178500000Y-84200000D03*
X181040000Y-81660000D03*
X178500000Y-81660000D03*
X181040000Y-79120000D03*
X178500000Y-79120000D03*
X181040000Y-76580000D03*
X178500000Y-76580000D03*
X181040000Y-74040000D03*
X178500000Y-74040000D03*
X181040000Y-71500000D03*
G36*
G01*
X177640000Y-72350000D02*
X177640000Y-70650000D01*
G75*
G02*
X177650000Y-70640000I10000J0D01*
G01*
X179350000Y-70640000D01*
G75*
G02*
X179360000Y-70650000I0J-10000D01*
G01*
X179360000Y-72350000D01*
G75*
G02*
X179350000Y-72360000I-10000J0D01*
G01*
X177650000Y-72360000D01*
G75*
G02*
X177640000Y-72350000I0J10000D01*
G01*
G37*
G04 #@! TD*
D11*
G04 #@! TO.C,J28*
X182210000Y-142540000D03*
X182210000Y-137460000D03*
X187290000Y-137460000D03*
X187290000Y-142540000D03*
D12*
X184750000Y-140000000D03*
G04 #@! TD*
D11*
G04 #@! TO.C,J27*
X246210000Y-142790000D03*
X246210000Y-137710000D03*
X251290000Y-137710000D03*
X251290000Y-142790000D03*
D12*
X248750000Y-140250000D03*
G04 #@! TD*
D11*
G04 #@! TO.C,J26*
X226210000Y-142540000D03*
X226210000Y-137460000D03*
X231290000Y-137460000D03*
X231290000Y-142540000D03*
D12*
X228750000Y-140000000D03*
G04 #@! TD*
D11*
G04 #@! TO.C,J25*
X194210000Y-142540000D03*
X194210000Y-137460000D03*
X199290000Y-137460000D03*
X199290000Y-142540000D03*
D12*
X196750000Y-140000000D03*
G04 #@! TD*
D10*
G04 #@! TO.C,J24*
X147620000Y-147250000D03*
X145080000Y-147250000D03*
X142540000Y-147250000D03*
G36*
G01*
X140850000Y-148110000D02*
X139150000Y-148110000D01*
G75*
G02*
X139140000Y-148100000I0J10000D01*
G01*
X139140000Y-146400000D01*
G75*
G02*
X139150000Y-146390000I10000J0D01*
G01*
X140850000Y-146390000D01*
G75*
G02*
X140860000Y-146400000I0J-10000D01*
G01*
X140860000Y-148100000D01*
G75*
G02*
X140850000Y-148110000I-10000J0D01*
G01*
G37*
G04 #@! TD*
D18*
G04 #@! TO.C,J23*
X123630000Y-148750000D03*
X126170000Y-148750000D03*
X128710000Y-148750000D03*
G36*
G01*
X132130000Y-147897872D02*
X132130000Y-149602128D01*
G75*
G02*
X131877128Y-149855000I-252872J0D01*
G01*
X130622872Y-149855000D01*
G75*
G02*
X130370000Y-149602128I0J252872D01*
G01*
X130370000Y-147897872D01*
G75*
G02*
X130622872Y-147645000I252872J0D01*
G01*
X131877128Y-147645000D01*
G75*
G02*
X132130000Y-147897872I0J-252872D01*
G01*
G37*
G04 #@! TD*
D11*
G04 #@! TO.C,J22*
X161960000Y-136540000D03*
X161960000Y-131460000D03*
X167040000Y-131460000D03*
X167040000Y-136540000D03*
D12*
X164500000Y-134000000D03*
G04 #@! TD*
D11*
G04 #@! TO.C,J21*
X107960000Y-136290000D03*
X107960000Y-131210000D03*
X113040000Y-131210000D03*
X113040000Y-136290000D03*
D12*
X110500000Y-133750000D03*
G04 #@! TD*
D11*
G04 #@! TO.C,J20*
X125710000Y-136540000D03*
X125710000Y-131460000D03*
X130790000Y-131460000D03*
X130790000Y-136540000D03*
D12*
X128250000Y-134000000D03*
G04 #@! TD*
D11*
G04 #@! TO.C,J6*
X224960000Y-39790000D03*
X224960000Y-34710000D03*
X230040000Y-34710000D03*
X230040000Y-39790000D03*
D12*
X227500000Y-37250000D03*
G04 #@! TD*
D10*
G04 #@! TO.C,J3*
X161170000Y-38000000D03*
X163710000Y-38000000D03*
G36*
G01*
X165400000Y-37140000D02*
X167100000Y-37140000D01*
G75*
G02*
X167110000Y-37150000I0J-10000D01*
G01*
X167110000Y-38850000D01*
G75*
G02*
X167100000Y-38860000I-10000J0D01*
G01*
X165400000Y-38860000D01*
G75*
G02*
X165390000Y-38850000I0J10000D01*
G01*
X165390000Y-37150000D01*
G75*
G02*
X165400000Y-37140000I10000J0D01*
G01*
G37*
G04 #@! TD*
G04 #@! TO.C,J1*
G36*
G01*
X108760000Y-42750000D02*
X108760000Y-44750000D01*
G75*
G02*
X108750000Y-44760000I-10000J0D01*
G01*
X104750000Y-44760000D01*
G75*
G02*
X104740000Y-44750000I0J10000D01*
G01*
X104740000Y-42750000D01*
G75*
G02*
X104750000Y-42740000I10000J0D01*
G01*
X108750000Y-42740000D01*
G75*
G02*
X108760000Y-42750000I0J-10000D01*
G01*
G37*
D19*
X106750000Y-37750000D03*
D20*
X111250000Y-36750000D03*
X102250000Y-36750000D03*
D17*
X106750000Y-34750000D03*
G04 #@! TD*
D21*
G04 #@! TO.C,U1*
X131000000Y-53750000D03*
X131000000Y-51718000D03*
X131000000Y-47654000D03*
X136080000Y-53750000D03*
X136080000Y-51718000D03*
X136080000Y-49686000D03*
G04 #@! TD*
M02*
